<svg width="1949" height="952" fill="none" xmlns="http://www.w3.org/2000/svg"><mask id="a" style="mask-type:luminance" maskUnits="userSpaceOnUse" x="0" y="0" width="1949" height="952"><path d="M270.147 407.254v134.333h62.23V407.254h-62.23zM1886.04 452.72v43.387h62.24V452.72h-62.24zm-1750.548-9.413v62.227h62.227v-62.227h-62.227zm1211.918-325v62.24h62.23v-62.24h-62.23zM1212.76 62.72h62.23V.493h-62.23V62.72zm-134.67 55.587v62.24h62.24v-62.24h-62.24zm-476.395 0h-62.227v62.24h62.227v-62.24zM736.354 62.72V.493h-62.231V62.72h62.231zm134.659 55.587h-62.226v62.24h62.226v-62.24zM1005.67 370.88v-62.226h-62.23v62.226h62.23zm134.66-117.906h-62.24v573.573h62.24V252.974zm134.66-117.827h-62.23v507.48h62.23v-507.48zm134.65 117.827h-62.23v458.839h62.23V252.974zm134.67 106.56h-62.24v229.773h62.24V359.534zm134.65 47.72h-62.23v134.333h62.23V407.254zm134.65 36.053h-62.22v62.227h62.22v-62.227zM.833 452.72v43.387h62.231V452.72H.834zm942.607-9.413v508.4h62.23v-508.4h-62.23zM808.787 252.974v573.573h62.226V252.974h-62.226zM674.123 135.147v507.48h62.231v-507.48h-62.231zM539.464 252.974v458.839h62.231V252.974h-62.231zm-134.655 106.56v229.773h62.227V359.534h-62.227z" fill="#fff"/></mask><g mask="url(#a)"><mask id="b" style="mask-type:luminance" maskUnits="userSpaceOnUse" x="0" y="0" width="1949" height="952"><path d="M.833 951.707H1948.28V.493H.833v951.214z" fill="#fff"/></mask><g mask="url(#b)"><path d="M943.397 951.797v-508.52h62.263v508.52h-62.263zM808.731 826.608V252.867h62.401v573.741h-62.401zm269.329 0V252.867h62.27v573.741h-62.27zM539.399 711.939V252.867h62.399v459.072h-62.399zm807.991 0V252.867h62.27v459.072h-62.27zm-673.325-69.196V135.136h62.399v507.607h-62.399zm538.665 0V135.136H1275v507.607h-62.27zm-807.999-53.329V359.412h62.401v230.002h-62.401zm1077.329 0V359.412h62.27v230.002h-62.27zM270.065 541.678V407.147h62.401v134.531h-62.401zm1346.675 0V407.147h62.25v134.531h-62.25zM135.399 505.529v-62.252H197.8v62.252h-62.401zm1615.871 0v-62.252h62.39v62.252h-62.39zM.733 496.207V452.6h62.399v43.607H.732zm1885.197 0V452.6h62.41v43.607h-62.41zM943.397 370.998v-62.385h62.263v62.385h-62.263zm-403.998-190.39v-62.405h62.399v62.405h-62.399zm269.332 0v-62.405h62.401v62.405h-62.401zm269.329 0v-62.405h62.27v62.405h-62.27zm269.33 0v-62.405h62.27v62.405h-62.27zM674.065 62.743V.473h62.399v62.27h-62.399zm538.665 0V.473H1275v62.27" fill="url(#c)"/></g></g><defs><linearGradient id="c" x1="249.236" y1="-644.843" x2="3028.1" y2="-644.843" gradientUnits="userSpaceOnUse"><stop stop-color="#FF008C"/><stop offset=".16" stop-color="#FF008C"/><stop offset=".43" stop-color="#D51EE6"/><stop offset=".43" stop-color="#D51EE6"/><stop offset=".71" stop-color="#08F"/><stop offset=".71" stop-color="#08F"/><stop offset="1" stop-color="#06F7DB"/></linearGradient></defs></svg>